<?xml version="1.0" encoding="UTF-8"?>
<svg id="Layer_4" data-name="Layer 4" xmlns="http://www.w3.org/2000/svg" xmlns:xlink="http://www.w3.org/1999/xlink" viewBox="0 0 1000 282">
  <defs>
    <style>
      .cls-1 {
        fill: #1d2b36;
      }

      .cls-1, .cls-2 {
        stroke-width: 0px;
      }

      .cls-2 {
        fill: url(#Degradado_sin_nombre_57);
      }
    </style>
    <linearGradient id="Degradado_sin_nombre_57" data-name="Degradado sin nombre 57" x1="293.43" y1="-12.4" x2="-107.63" y2="388.66" gradientUnits="userSpaceOnUse">
      <stop offset="0" stop-color="#fff"/>
      <stop offset=".06" stop-color="#2affcc"/>
      <stop offset="1" stop-color="#966aff"/>
    </linearGradient>
  </defs>
  <g id="ISOLOGO">
    <path class="cls-1" d="M494.07,277.25h-28.93c-19.41,0-38.81-9.88-46.57-24.35l-51.51-103.38-34.22,71.28h47.63c0,31.05-25.4,56.45-56.45,56.45h-83.98L367.05,23.21l127.02,254.04ZM699.79,199.63c0,43.05-34.93,77.62-77.62,77.62h-70.56c-31.05,0-56.46-25.41-56.46-56.45h127.02c11.64,0,21.17-9.53,21.17-21.17s-9.53-21.17-21.17-21.17h-49.39c-43.05,0-77.62-34.58-77.62-77.62s34.58-77.62,77.62-77.62h105.85c0,31.05-25.41,56.45-56.46,56.45h-49.39c-11.64,0-21.17,9.53-21.17,21.17s9.52,21.17,21.17,21.17h49.39c42.69,0,77.62,34.93,77.62,77.62ZM716.38,220.8V23.21c31.05,0,56.45,25.4,56.45,56.45v197.59c-31.05,0-56.45-25.41-56.45-56.45ZM999,199.63c0,43.05-34.93,77.62-77.62,77.62h-70.57c-31.05,0-56.45-25.41-56.45-56.45h127.02c11.64,0,21.17-9.53,21.17-21.17s-9.52-21.17-21.17-21.17h-49.39c-43.05,0-77.62-34.58-77.62-77.62s34.58-77.62,77.62-77.62h105.85c0,31.05-25.4,56.45-56.45,56.45h-49.39c-11.64,0-21.17,9.53-21.17,21.17s9.53,21.17,21.17,21.17h49.39c42.69,0,77.62,34.93,77.62,77.62Z"/>
    <path class="cls-2" d="M217.12,150.1c0,48.21-38.66,87.41-86.18,87.41s-86.18-39.2-86.18-87.41c0-41.34,28.46-76.09,66.62-85.07.61,7.48,2.15,12.46,2.15,12.46,24.93,61.14,83.15,56.11,158.86,8.25-2.42-5.48-5.14-10.82-8.13-15.92-1.5-2.61-3.07-5.14-4.76-7.59-17.11-25.7-41.5-45.99-70.26-57.8-8.48-3.49-17.72-5.1-26.77-3.87-5.83.81-11.62,2.65-16.84,6.17-7.29,3.34-13.08,7.33-17.68,11.66C57.65,20.01,1,78.5,1,150.1s58.3,131.74,129.94,131.74,129.9-59.1,129.9-131.74v-22.17c-12.08,0-43.72,9.93-43.72,22.17ZM176.12,26.37c-.11-.27-.11-.54-.11-.84,0-4.41,3.49-8.02,7.71-8.02s7.71,3.6,7.71,8.02-3.45,8.13-7.71,8.13c-2.03,0-3.87-.84-5.25-2.3l-21.86,8.32c4.14.65,8.05,1.46,11.66,2.34l42.73-5.94c1.53-.23,2.91.88,3.07,2.38.23,1.5-.81,2.95-2.3,3.11l-30.72,4.3c11.39,4.03,18.91,8.59,22.71,11.12,1.96-3.45,5.56-5.75,9.67-5.75,6.25,0,11.28,5.25,11.28,11.74s-5.02,11.77-11.28,11.77-11.28-5.33-11.28-11.77v-.31c-2.95-2.11-13.12-8.9-30.22-13.81l9.74,32.64c3.45.84,5.94,3.99,5.94,7.82,0,4.49-3.45,8.09-7.71,8.09s-7.71-3.61-7.71-8.09c0-3.07,1.61-5.68,3.99-7.06l-10.47-35.09c-3.34-.77-6.94-1.5-10.78-2.11l9.24,24.7c.54,1.42-.19,3.03-1.61,3.57-.27.12-.58.19-.92.19-1.07,0-2.11-.69-2.57-1.76l-8.25-21.98-2.07-5.52c-5.52-.61-11.43-.96-17.8-.96-1.5,0-2.72-1.23-2.72-2.76s1.23-2.8,2.72-2.8c4.83,0,9.43.23,13.81.57l7.48-2.84,23.89-9.09ZM179.88,86.82c-1.23,0-2.22,1.11-2.22,2.49s1,2.53,2.22,2.53,2.26-1.11,2.26-2.53-1.04-2.49-2.26-2.49ZM179.88,86.82c-1.23,0-2.22,1.11-2.22,2.49s1,2.53,2.22,2.53,2.26-1.11,2.26-2.53-1.04-2.49-2.26-2.49ZM179.88,86.82c-1.23,0-2.22,1.11-2.22,2.49s1,2.53,2.22,2.53,2.26-1.11,2.26-2.53-1.04-2.49-2.26-2.49ZM213.4,56.75c-3.18,0-5.79,2.8-5.79,6.21s2.61,6.21,5.79,6.21,5.79-2.84,5.79-6.21-2.57-6.21-5.79-6.21ZM213.4,56.75c-3.18,0-5.79,2.8-5.79,6.21s2.61,6.21,5.79,6.21,5.79-2.84,5.79-6.21-2.57-6.21-5.79-6.21ZM179.88,86.82c-1.23,0-2.22,1.11-2.22,2.49s1,2.53,2.22,2.53,2.26-1.11,2.26-2.53-1.04-2.49-2.26-2.49ZM179.88,86.82c-1.23,0-2.22,1.11-2.22,2.49s1,2.53,2.22,2.53,2.26-1.11,2.26-2.53-1.04-2.49-2.26-2.49ZM213.4,56.75c-3.18,0-5.79,2.8-5.79,6.21s2.61,6.21,5.79,6.21,5.79-2.84,5.79-6.21-2.57-6.21-5.79-6.21ZM213.4,56.75c-3.18,0-5.79,2.8-5.79,6.21s2.61,6.21,5.79,6.21,5.79-2.84,5.79-6.21-2.57-6.21-5.79-6.21ZM179.88,86.82c-1.23,0-2.22,1.11-2.22,2.49s1,2.53,2.22,2.53,2.26-1.11,2.26-2.53-1.04-2.49-2.26-2.49ZM179.88,86.82c-1.23,0-2.22,1.11-2.22,2.49s1,2.53,2.22,2.53,2.26-1.11,2.26-2.53-1.04-2.49-2.26-2.49ZM183.72,23.04c-1.19,0-2.22,1.11-2.22,2.49s1.04,2.57,2.22,2.57c1.27,0,2.26-1.15,2.26-2.57s-1-2.49-2.26-2.49ZM213.4,56.75c-3.18,0-5.79,2.8-5.79,6.21s2.61,6.21,5.79,6.21,5.79-2.84,5.79-6.21-2.57-6.21-5.79-6.21ZM213.4,56.75c-3.18,0-5.79,2.8-5.79,6.21s2.61,6.21,5.79,6.21,5.79-2.84,5.79-6.21-2.57-6.21-5.79-6.21ZM183.72,23.04c-1.19,0-2.22,1.11-2.22,2.49s1.04,2.57,2.22,2.57c1.27,0,2.26-1.15,2.26-2.57s-1-2.49-2.26-2.49ZM179.88,86.82c-1.23,0-2.22,1.11-2.22,2.49s1,2.53,2.22,2.53,2.26-1.11,2.26-2.53-1.04-2.49-2.26-2.49ZM213.4,56.75c-3.18,0-5.79,2.8-5.79,6.21s2.61,6.21,5.79,6.21,5.79-2.84,5.79-6.21-2.57-6.21-5.79-6.21ZM183.72,23.04c-1.19,0-2.22,1.11-2.22,2.49s1.04,2.57,2.22,2.57c1.27,0,2.26-1.15,2.26-2.57s-1-2.49-2.26-2.49ZM179.88,86.82c-1.23,0-2.22,1.11-2.22,2.49s1,2.53,2.22,2.53,2.26-1.11,2.26-2.53-1.04-2.49-2.26-2.49ZM179.88,86.82c-1.23,0-2.22,1.11-2.22,2.49s1,2.53,2.22,2.53,2.26-1.11,2.26-2.53-1.04-2.49-2.26-2.49ZM183.72,23.04c-1.19,0-2.22,1.11-2.22,2.49s1.04,2.57,2.22,2.57c1.27,0,2.26-1.15,2.26-2.57s-1-2.49-2.26-2.49ZM213.4,56.75c-3.18,0-5.79,2.8-5.79,6.21s2.61,6.21,5.79,6.21,5.79-2.84,5.79-6.21-2.57-6.21-5.79-6.21ZM213.4,56.75c-3.18,0-5.79,2.8-5.79,6.21s2.61,6.21,5.79,6.21,5.79-2.84,5.79-6.21-2.57-6.21-5.79-6.21ZM183.72,23.04c-1.19,0-2.22,1.11-2.22,2.49s1.04,2.57,2.22,2.57c1.27,0,2.26-1.15,2.26-2.57s-1-2.49-2.26-2.49ZM179.88,86.82c-1.23,0-2.22,1.11-2.22,2.49s1,2.53,2.22,2.53,2.26-1.11,2.26-2.53-1.04-2.49-2.26-2.49ZM179.88,86.82c-1.23,0-2.22,1.11-2.22,2.49s1,2.53,2.22,2.53,2.26-1.11,2.26-2.53-1.04-2.49-2.26-2.49ZM213.4,56.75c-3.18,0-5.79,2.8-5.79,6.21s2.61,6.21,5.79,6.21,5.79-2.84,5.79-6.21-2.57-6.21-5.79-6.21ZM213.4,56.75c-3.18,0-5.79,2.8-5.79,6.21s2.61,6.21,5.79,6.21,5.79-2.84,5.79-6.21-2.57-6.21-5.79-6.21ZM179.88,86.82c-1.23,0-2.22,1.11-2.22,2.49s1,2.53,2.22,2.53,2.26-1.11,2.26-2.53-1.04-2.49-2.26-2.49ZM179.88,86.82c-1.23,0-2.22,1.11-2.22,2.49s1,2.53,2.22,2.53,2.26-1.11,2.26-2.53-1.04-2.49-2.26-2.49ZM213.4,56.75c-3.18,0-5.79,2.8-5.79,6.21s2.61,6.21,5.79,6.21,5.79-2.84,5.79-6.21-2.57-6.21-5.79-6.21ZM213.4,56.75c-3.18,0-5.79,2.8-5.79,6.21s2.61,6.21,5.79,6.21,5.79-2.84,5.79-6.21-2.57-6.21-5.79-6.21ZM179.88,86.82c-1.23,0-2.22,1.11-2.22,2.49s1,2.53,2.22,2.53,2.26-1.11,2.26-2.53-1.04-2.49-2.26-2.49Z"/>
  </g>
</svg>