<?xml version="1.0" encoding="UTF-8"?>
<svg id="Capa_2" data-name="Capa 2" xmlns="http://www.w3.org/2000/svg" viewBox="0 0 217.6 103.4">
  <defs>
    <style>
      .cls-1 {
        fill: #0067a6;
      }

      .cls-1, .cls-2, .cls-3, .cls-4 {
        stroke-width: 0px;
      }

      .cls-2 {
        fill: #1f140f;
      }

      .cls-3 {
        fill: #8bc6da;
      }

      .cls-4 {
        fill: #0c0b0a;
      }
    </style>
  </defs>
  <g id="LOGO">
    <g>
      <path class="cls-4" d="m215.12,63.11c-.48-3.5-1.84-6.58-4.43-9.07-5.75-5.52-17.7-5.43-22.16,5.04-2.29,5.4-2.22,10.99-.42,16.52,1.44,4.43,4.49,7.35,9.02,8.61h11.35c1.88-.32,3.68-.92,5.41-1.66v-4.83c-.29-.11-.44.06-.61.14-3.84,1.96-7.93,2.64-12.19,2.41-2.41-.13-4.67-.79-6.35-2.64-2.45-2.69-2.78-6.03-2.9-9.55h23.42c.11-1.73.09-3.36-.14-4.97Zm-22.83,1.11c.3-5.01,4.32-9.29,8.75-9.35,4.65-.06,8.97,4.19,9.44,9.35h-18.19Z"/>
      <path class="cls-4" d="m180.84,63.49c-.01.32-.04.64-.04.95,0,6.59-.01,13.18-.02,19.77h-4.76v-.3c-.01-6.02-.02-12.05-.03-18.06,0-.63.05-1.28-.21-1.88-.09-1.69-.46-3.31-1.14-4.86-.64-1.49-1.47-2.58-2.52-3.28l-.02-.02c-1.18-.78-2.64-1.07-4.44-.89-1.42.14-2.74.47-4,.98-.01.01-.02.01-.04.02-1.59.66-3.05,1.61-4.37,2.87-.53.51-.75,1.02-.75,1.77.03,7.5.02,15,.01,22.51,0,.18,0,.36-.01.54h0c0,.2,0,.4-.02.6h-5v-24.89c1.86-1.41,3.5-2.98,4.87-4.47v.31c.11-.12.22-.25.33-.36.01-.02.03-.03.04-.05.28-.25.57-.51.86-.76,4.07-3.48,8.83-4.55,13.99-2.89,3.69,1.18,5.53,4.11,6.51,7.67.16.59.29,1.19.4,1.79,0,.01.01.02,0,.03.18.96.29,1.93.36,2.9Z"/>
      <path class="cls-4" d="m144.76,63.49v20.72h-5v-20.63c.73.12,1.48.18,2.24.18.94,0,1.86-.09,2.76-.27Z"/>
      <path class="cls-4" d="m123.84,79.12c-3.5-.32-7.01-.5-10.51-.75-1.42-.11-2.77-.41-3.89-1.36-1.31-1.12-1.41-2.52-.26-3.77.02-.03.04-.05.07-.08.45-.47.97-.88,1.53-1.19.12-.08.24-.15.37-.21,1.69.61,3.41.87,5.16.92.21.01.42.01.64.01.25,0,.49-.01.73-.02.36-.01.71-.03,1.06-.05,5.56-.4,9.34-3.43,10.39-8.14.06-.36.11-.73.14-1.11.08-.44.13-.88.16-1.33.01-.14.02-.28.01-.42,0-.16,0-.32-.01-.48,0-.22-.02-.43-.04-.64-.01-.18-.03-.35-.06-.53-.01-.07-.02-.13-.03-.21-.01,0-.01-.03-.01-.04-.03-.15-.05-.29-.09-.44-.1-.46-.23-.91-.41-1.35-2.56-2.22-4.62-4.63-5.96-6.37-1.75-.85-3.75-1.33-5.88-1.33-2.49,0-4.8.65-6.75,1.79-.15.08-.3.16-.44.26-.12.07-.25.15-.37.24-.13.09-.26.18-.39.28-.15.11-.31.23-.45.35-.15.12-.3.24-.44.37-.1.09-.2.19-.3.29-.12.12-.25.24-.36.37-.12.13-.23.27-.35.4-.46.54-.85,1.14-1.19,1.76-1.2,2.25-1.62,4.95-1.17,7.53.38,2.2,1.4,4.33,3.1,6.01-4.77,4.42-4.94,7.6-.52,11.12-.76.58-1.74,1.16-2.33,1.75-.46.47-.87.96-1.21,1.46h4.96c.07-.07.14-.14.22-.21.55-.5,1.24-1.03,2.08-1.6h.01s.05-.03.07-.05h.1c.14-.04.29-.05.46-.04.46.03.91.07,1.37.1,2.95.21,5.92.41,8.87.63,1.58.12,3.14.33,4.51,1.17h5.78c-1.72-3.43-4.77-4.76-8.37-5.09Zm-8.82-24.5c3.02-.5,5.87-.13,8.07,2.19,2.05,2.17,2.38,4.82,1.32,7.57-.5,1.31-1.26,2.25-2.21,2.92,0,.01-.01.01-.01.01-1.14.82-2.54,1.25-4.1,1.44-.35.04-.72,0-1.08,0-1.23,0-2.4-.14-3.46-.52-1.44-.49-2.66-1.4-3.56-2.93-2.62-4.45-.05-9.85,5.03-10.69Z"/>
      <path class="cls-4" d="m96.03,75.49c0-2.08.02-4.17-.01-6.24-.05-3.12.18-6.24-.16-9.35-.54-5.05-3.95-8.84-8.64-9.33-5.26-.55-10.09.92-14.62,3.46v4.95c.42-.24.75-.43,1.08-.62,3.43-1.92,7.07-3.13,11.02-3.3,3.04-.13,5.1,1.3,6.11,4.17.78,2.22.38,4.48.41,6.81-3.07-.2-6.02-.15-8.97-.12-2.71.03-5.34.51-7.68,1.95-3.64,2.23-5.2,5.58-4.62,9.77.52,3.72,3.13,5.55,6.51,6.54.03.01.07.02.13.03h9.01c2.36-.69,4.37-2.06,6.32-3.73.51,1.47,1.42,2.62,2.36,3.73h1.88c.93-.76,1.68-1.71,2.5-2.62-2-1.61-2.64-3.72-2.63-6.1Zm-5.12,1.39c-2.37,1.82-4.85,3.37-7.91,3.74-1.69.2-3.35,0-4.97-.46-1.8-.51-3.01-1.67-3.25-3.58-.29-2.25.53-4.08,2.38-5.4,1.14-.81,2.43-1.26,3.79-1.37,3.34-.26,6.69-.36,10.38-.17,0,2.22,0,4.33.01,6.44,0,.36-.18.6-.43.8Z"/>
      <path class="cls-4" d="m64.16,65.39v18.82h-5.04v-18.7c0-2.18-.35-4.29-1.19-6.31-1.35-3.2-3.52-4.54-6.95-4.3-3.08.22-6.49,1.8-8.44,3.95.92,3.22.78,6.59.77,9.94,0,5.14-.02,10.28-.03,15.42h-5c-.01-6.68,0-13.36-.06-20.04-.01-1.76-.45-3.47-1.17-5.1-1.43-3.22-3.69-4.56-7.14-4.14-3.15.38-5.89,1.64-8.21,3.83-.54.5-.76,1.02-.76,1.77.03,7.52.02,15.04.02,22.55v1.13h-4.97v-33.1h4.31c.19,1.14.38,2.3.61,3.66,3.1-2.7,6.52-4.38,10.56-4.39,4.07-.01,7.53,1.29,9.7,5.04,2.8-2.75,5.96-4.6,9.83-4.94,6.89-.61,10.92,2.62,12.41,8.62.51,2.06.75,4.16.75,6.29Z"/>
      <path class="cls-4" d="m7.04,84.21H2.25v-45.17h4.78c0,15.06.01,30.11.01,45.17Z"/>
    </g>
    <path class="cls-3" d="m2.74,30.38c.67-1.05,1.69-1.57,2.64-2.13,4.94-2.94,9.98-5.72,15.13-8.28,13.53-6.72,27.65-11.82,42.38-15.16,4.93-1.12,9.91-1.95,14.94-2.52,5.16-.59,10.32-.96,15.51-.94,3.26.01,6.53-.03,9.79.03,4.3.07,8.59.48,12.87.91,8.1.82,16.07,2.31,23.94,4.36,8.93,2.33,17.62,5.38,26.09,9.06,7.96,3.45,15.65,7.44,23.09,11.91,6.61,3.98,12.92,8.38,18.89,13.28,2.03,1.67,3.96,3.47,6.1,5.01.67.48,1.32,1.07,1.23,2.08-.7.41-1.24.05-1.77-.29-3.94-2.51-7.89-5-11.97-7.28-6.24-3.49-12.61-6.73-19.13-9.69-8.73-3.97-17.68-7.36-26.82-10.25-8.48-2.69-17.09-4.84-25.85-6.4-4.54-.81-9.1-1.56-13.68-2.1-2.05-.25-4.13-.47-6.19-.48-6.07-.03-12.14-.54-18.21-.25-4.57.23-9.14.55-13.69,1.08-6.45.76-12.84,1.85-19.19,3.2-5.46,1.16-10.85,2.58-16.2,4.17-8.31,2.47-16.39,5.55-24.34,9.01-4.09,1.78-8.36,2.9-12.89,2.66-1.31-.07-1.9-.25-2.66-.98Z"/>
    <g>
      <path class="cls-2" d="m22.01,46.88c-.4.2-1.19.39-2.2.39-2.35,0-4.11-1.48-4.11-4.21s1.77-4.37,4.35-4.37c1.04,0,1.69.22,1.98.37l-.26.88c-.41-.2-.99-.35-1.68-.35-1.95,0-3.25,1.25-3.25,3.43,0,2.04,1.17,3.34,3.2,3.34.65,0,1.32-.14,1.75-.35l.22.85Z"/>
      <path class="cls-2" d="m28.6,44.12c0,2.21-1.53,3.17-2.98,3.17-1.62,0-2.86-1.19-2.86-3.07,0-2,1.31-3.17,2.96-3.17s2.88,1.25,2.88,3.07Zm-4.74.06c0,1.31.75,2.3,1.81,2.3s1.81-.98,1.81-2.32c0-1.01-.51-2.3-1.79-2.3s-1.84,1.18-1.84,2.32Z"/>
      <path class="cls-2" d="m29.97,42.79c0-.62-.01-1.12-.05-1.62h.95l.05.96h.04c.33-.57.89-1.1,1.88-1.1.81,0,1.43.49,1.69,1.2h.02c.19-.33.42-.59.67-.78.36-.27.75-.42,1.32-.42.79,0,1.96.52,1.96,2.59v3.52h-1.06v-3.38c0-1.15-.42-1.84-1.3-1.84-.62,0-1.1.46-1.28.99-.05.15-.09.35-.09.54v3.69h-1.06v-3.58c0-.95-.42-1.64-1.25-1.64-.68,0-1.17.54-1.35,1.09-.06.16-.09.35-.09.53v3.6h-1.06v-4.36Z"/>
      <path class="cls-2" d="m40.27,43.13c0-.77-.02-1.38-.05-1.95h.98l.05,1.02h.02c.44-.73,1.15-1.16,2.12-1.16,1.44,0,2.53,1.22,2.53,3.04,0,2.15-1.31,3.21-2.72,3.21-.79,0-1.48-.35-1.84-.94h-.02v3.25h-1.07v-6.47Zm1.07,1.59c0,.16.02.31.05.44.2.75.85,1.27,1.63,1.27,1.15,0,1.81-.94,1.81-2.31,0-1.2-.63-2.22-1.78-2.22-.74,0-1.43.53-1.64,1.35-.04.14-.07.3-.07.44v1.03Z"/>
      <path class="cls-2" d="m52.29,45.52c0,.62.01,1.16.05,1.63h-.96l-.06-.98h-.02c-.28.48-.91,1.11-1.98,1.11-.94,0-2.06-.52-2.06-2.62v-3.49h1.09v3.31c0,1.14.35,1.9,1.33,1.9.73,0,1.23-.51,1.43-.99.06-.16.1-.36.1-.56v-3.67h1.09v4.34Z"/>
      <path class="cls-2" d="m55.41,39.46v1.72h1.56v.83h-1.56v3.22c0,.74.21,1.16.81,1.16.28,0,.49-.04.63-.07l.05.81c-.21.09-.54.15-.96.15-.51,0-.91-.16-1.17-.46-.31-.32-.42-.85-.42-1.55v-3.26h-.93v-.83h.93v-1.43l1.06-.28Z"/>
      <path class="cls-2" d="m61.5,47.15l-.09-.75h-.04c-.33.47-.98.89-1.83.89-1.21,0-1.83-.85-1.83-1.72,0-1.44,1.28-2.23,3.59-2.22v-.12c0-.49-.14-1.38-1.36-1.38-.56,0-1.14.17-1.56.44l-.25-.72c.49-.32,1.21-.53,1.96-.53,1.83,0,2.27,1.25,2.27,2.44v2.23c0,.52.02,1.03.1,1.43h-.99Zm-.16-3.05c-1.19-.03-2.53.18-2.53,1.34,0,.7.47,1.04,1.02,1.04.78,0,1.27-.49,1.44-1,.04-.11.06-.23.06-.35v-1.04Z"/>
      <path class="cls-2" d="m68.4,46.93c-.28.15-.91.35-1.72.35-1.8,0-2.97-1.22-2.97-3.05s1.26-3.17,3.21-3.17c.64,0,1.21.16,1.51.31l-.25.84c-.26-.15-.67-.28-1.26-.28-1.37,0-2.11,1.01-2.11,2.26,0,1.38.89,2.23,2.07,2.23.62,0,1.02-.16,1.33-.3l.19.81Z"/>
      <path class="cls-2" d="m70.88,39.5c.01.37-.26.67-.69.67-.38,0-.65-.3-.65-.67s.28-.68.68-.68.67.3.67.68Zm-1.21,7.65v-5.97h1.09v5.97h-1.09Z"/>
      <path class="cls-2" d="m77.97,44.12c0,2.21-1.53,3.17-2.98,3.17-1.62,0-2.86-1.19-2.86-3.07,0-2,1.31-3.17,2.96-3.17s2.88,1.25,2.88,3.07Zm-4.74.06c0,1.31.75,2.3,1.81,2.3s1.81-.98,1.81-2.32c0-1.01-.51-2.3-1.79-2.3s-1.84,1.18-1.84,2.32Zm3.44-5.58l-1.51,1.76h-.78l1.09-1.76h1.2Z"/>
      <path class="cls-2" d="m79.34,42.79c0-.62-.01-1.12-.05-1.62h.96l.06.99h.02c.3-.57.99-1.12,1.98-1.12.83,0,2.11.49,2.11,2.54v3.57h-1.09v-3.44c0-.96-.36-1.77-1.38-1.77-.72,0-1.27.51-1.46,1.11-.05.14-.07.32-.07.51v3.59h-1.09v-4.36Z"/>
      <path class="cls-2" d="m90.23,47.15l-2.72-8.32h1.16l1.3,4.1c.36,1.12.67,2.13.89,3.11h.02c.23-.96.58-2.01.95-3.1l1.41-4.11h1.15l-2.98,8.32h-1.19Z"/>
      <path class="cls-2" d="m96.27,39.5c.01.37-.26.67-.69.67-.38,0-.65-.3-.65-.67s.28-.68.68-.68.67.3.67.68Zm-1.21,7.65v-5.97h1.09v5.97h-1.09Z"/>
      <path class="cls-2" d="m97.8,46.04c.32.21.89.43,1.43.43.79,0,1.16-.4,1.16-.89,0-.52-.31-.8-1.11-1.1-1.07-.38-1.58-.97-1.58-1.69,0-.96.78-1.75,2.06-1.75.6,0,1.14.17,1.47.37l-.27.79c-.23-.15-.67-.35-1.22-.35-.64,0-1,.37-1,.81,0,.49.36.72,1.14,1.01,1.04.39,1.57.91,1.57,1.8,0,1.05-.81,1.79-2.23,1.79-.65,0-1.26-.16-1.68-.41l.27-.83Z"/>
      <path class="cls-2" d="m107.84,45.52c0,.62.01,1.16.05,1.63h-.96l-.06-.98h-.02c-.28.48-.91,1.11-1.98,1.11-.94,0-2.06-.52-2.06-2.62v-3.49h1.09v3.31c0,1.14.35,1.9,1.33,1.9.73,0,1.23-.51,1.43-.99.06-.16.1-.36.1-.56v-3.67h1.09v4.34Z"/>
      <path class="cls-2" d="m112.96,47.15l-.09-.75h-.04c-.33.47-.98.89-1.83.89-1.21,0-1.83-.85-1.83-1.72,0-1.44,1.28-2.23,3.59-2.22v-.12c0-.49-.14-1.38-1.36-1.38-.56,0-1.14.17-1.56.44l-.25-.72c.49-.32,1.21-.53,1.96-.53,1.83,0,2.27,1.25,2.27,2.44v2.23c0,.52.02,1.03.1,1.43h-.99Zm-.16-3.05c-1.19-.03-2.53.18-2.53,1.34,0,.7.47,1.04,1.02,1.04.78,0,1.27-.49,1.44-1,.04-.11.06-.23.06-.35v-1.04Z"/>
      <path class="cls-2" d="m115.6,38.39h1.09v8.76h-1.09v-8.76Z"/>
    </g>
    <g>
      <path class="cls-2" d="m38.9,93.22v3.82c0,1.45.64,2.06,1.5,2.06.96,0,1.57-.63,1.57-2.06v-3.82h.84v3.77c0,1.98-1.04,2.8-2.44,2.8-1.32,0-2.32-.76-2.32-2.76v-3.8h.84Z"/>
      <path class="cls-2" d="m44.24,96.29c0-.48,0-.87-.04-1.25h.75l.05.77h.02c.23-.44.77-.87,1.53-.87.64,0,1.64.38,1.64,1.97v2.77h-.84v-2.67c0-.75-.28-1.37-1.07-1.37-.56,0-.99.39-1.13.86-.04.11-.06.25-.06.39v2.79h-.84v-3.38Z"/>
      <path class="cls-2" d="m50.5,93.74c0,.29-.2.52-.54.52-.3,0-.51-.23-.51-.52s.22-.53.53-.53.52.23.52.53Zm-.94,5.94v-4.64h.84v4.64h-.84Z"/>
      <path class="cls-2" d="m52.13,95.04l.91,2.61c.15.42.28.8.37,1.19h.03c.11-.38.24-.77.39-1.19l.9-2.61h.88l-1.82,4.64h-.81l-1.76-4.64h.9Z"/>
      <path class="cls-2" d="m56.79,97.51c.02,1.14.75,1.61,1.59,1.61.6,0,.97-.11,1.28-.24l.14.6c-.3.13-.8.29-1.54.29-1.43,0-2.28-.94-2.28-2.34s.82-2.5,2.18-2.5c1.51,0,1.92,1.33,1.92,2.18,0,.17-.02.31-.03.39h-3.26Zm2.47-.6c0-.54-.22-1.37-1.17-1.37-.85,0-1.23.79-1.29,1.37h2.46Z"/>
      <path class="cls-2" d="m61.13,96.49c0-.55,0-1.02-.04-1.45h.74l.03.91h.04c.21-.62.72-1.02,1.28-1.02.1,0,.16,0,.24.03v.79c-.09-.02-.17-.03-.29-.03-.59,0-1.02.45-1.13,1.08-.02.12-.04.25-.04.39v2.47h-.83v-3.19Z"/>
      <path class="cls-2" d="m64.15,98.81c.25.16.69.33,1.11.33.61,0,.9-.31.9-.69,0-.4-.24-.62-.86-.85-.83-.3-1.23-.76-1.23-1.31,0-.75.6-1.36,1.6-1.36.47,0,.88.13,1.14.29l-.21.61c-.18-.12-.52-.27-.95-.27-.5,0-.78.29-.78.63,0,.38.28.56.88.79.81.31,1.22.71,1.22,1.4,0,.81-.63,1.39-1.73,1.39-.51,0-.98-.12-1.3-.32l.21-.64Z"/>
      <path class="cls-2" d="m69,93.74c0,.29-.2.52-.54.52-.3,0-.51-.23-.51-.52s.22-.53.53-.53.52.23.52.53Zm-.94,5.94v-4.64h.84v4.64h-.84Z"/>
      <path class="cls-2" d="m74.31,92.87v5.61c0,.41,0,.88.04,1.2h-.76l-.04-.8h-.02c-.26.52-.82.91-1.58.91-1.12,0-1.98-.95-1.98-2.36,0-1.54.95-2.49,2.08-2.49.71,0,1.19.33,1.4.71h.02v-2.77h.84Zm-.84,4.05c0-.11,0-.25-.04-.35-.12-.54-.58-.98-1.22-.98-.87,0-1.39.77-1.39,1.79,0,.94.46,1.71,1.37,1.71.57,0,1.08-.37,1.24-1.01.03-.12.04-.23.04-.36v-.8Z"/>
      <path class="cls-2" d="m78.28,99.68l-.07-.58h-.03c-.26.36-.76.69-1.42.69-.94,0-1.42-.66-1.42-1.33,0-1.12,1-1.73,2.79-1.72v-.1c0-.38-.11-1.07-1.05-1.07-.43,0-.88.13-1.21.35l-.19-.56c.38-.25.94-.41,1.52-.41,1.42,0,1.76.97,1.76,1.9v1.74c0,.4.02.79.08,1.11h-.77Zm-.12-2.37c-.92-.02-1.96.14-1.96,1.04,0,.55.36.8.8.8.6,0,.99-.38,1.12-.78.03-.09.05-.18.05-.27v-.8Z"/>
      <path class="cls-2" d="m84.34,92.87v5.61c0,.41,0,.88.04,1.2h-.76l-.04-.8h-.02c-.26.52-.82.91-1.58.91-1.12,0-1.98-.95-1.98-2.36,0-1.54.95-2.49,2.08-2.49.71,0,1.19.33,1.4.71h.02v-2.77h.84Zm-.84,4.05c0-.11,0-.25-.04-.35-.12-.54-.58-.98-1.22-.98-.87,0-1.39.77-1.39,1.79,0,.94.46,1.71,1.37,1.71.57,0,1.08-.37,1.24-1.01.03-.12.04-.23.04-.36v-.8Z"/>
      <path class="cls-2" d="m91.78,92.87v5.61c0,.41,0,.88.04,1.2h-.76l-.04-.8h-.02c-.26.52-.82.91-1.58.91-1.12,0-1.98-.95-1.98-2.36,0-1.54.95-2.49,2.08-2.49.71,0,1.19.33,1.4.71h.02v-2.77h.84Zm-.84,4.05c0-.11,0-.25-.04-.35-.12-.54-.58-.98-1.22-.98-.87,0-1.39.77-1.39,1.79,0,.94.46,1.71,1.37,1.71.57,0,1.08-.37,1.24-1.01.03-.12.04-.23.04-.36v-.8Z"/>
      <path class="cls-2" d="m93.65,97.51c.02,1.14.75,1.61,1.59,1.61.6,0,.97-.11,1.28-.24l.14.6c-.3.13-.8.29-1.54.29-1.43,0-2.28-.94-2.28-2.34s.82-2.5,2.18-2.5c1.51,0,1.92,1.33,1.92,2.18,0,.17-.02.31-.03.39h-3.26Zm2.47-.6c0-.54-.22-1.37-1.17-1.37-.85,0-1.23.79-1.29,1.37h2.46Z"/>
      <path class="cls-2" d="m100.02,92.87h.84v6.8h-.84v-6.8Z"/>
      <path class="cls-2" d="m106.48,97.32c0,1.71-1.19,2.46-2.31,2.46-1.26,0-2.22-.92-2.22-2.39,0-1.55,1.02-2.46,2.3-2.46s2.23.97,2.23,2.39Zm-3.68.05c0,1.02.58,1.78,1.41,1.78s1.41-.76,1.41-1.8c0-.79-.39-1.78-1.39-1.78s-1.43.92-1.43,1.8Z"/>
      <path class="cls-2" d="m107.43,98.81c.25.16.69.33,1.11.33.61,0,.9-.31.9-.69,0-.4-.24-.62-.86-.85-.83-.3-1.23-.76-1.23-1.31,0-.75.6-1.36,1.6-1.36.47,0,.88.13,1.14.29l-.21.61c-.18-.12-.52-.27-.95-.27-.5,0-.78.29-.78.63,0,.38.28.56.88.79.81.31,1.22.71,1.22,1.4,0,.81-.63,1.39-1.73,1.39-.51,0-.98-.12-1.3-.32l.21-.64Z"/>
      <path class="cls-2" d="m114.45,97.65l-.67,2.03h-.86l2.19-6.46h1.01l2.2,6.46h-.89l-.69-2.03h-2.29Zm2.12-.65l-.63-1.86c-.14-.42-.24-.81-.33-1.18h-.02c-.1.38-.2.78-.33,1.17l-.63,1.87h1.95Z"/>
      <path class="cls-2" d="m119.21,96.29c0-.48,0-.87-.04-1.25h.75l.05.77h.02c.23-.44.77-.87,1.53-.87.64,0,1.64.38,1.64,1.97v2.77h-.84v-2.67c0-.75-.28-1.37-1.07-1.37-.56,0-.99.39-1.13.86-.04.11-.06.25-.06.39v2.79h-.84v-3.38Z"/>
      <path class="cls-2" d="m128.54,92.87v5.61c0,.41,0,.88.04,1.2h-.76l-.04-.8h-.02c-.26.52-.82.91-1.58.91-1.12,0-1.98-.95-1.98-2.36,0-1.54.95-2.49,2.08-2.49.71,0,1.19.33,1.4.71h.02v-2.77h.84Zm-.84,4.05c0-.11,0-.25-.04-.35-.12-.54-.58-.98-1.22-.98-.87,0-1.39.77-1.39,1.79,0,.94.46,1.71,1.37,1.71.57,0,1.08-.37,1.24-1.01.03-.12.04-.23.04-.36v-.8Z"/>
      <path class="cls-2" d="m130.41,97.51c.02,1.14.75,1.61,1.59,1.61.6,0,.97-.11,1.28-.24l.14.6c-.3.13-.8.29-1.54.29-1.43,0-2.28-.94-2.28-2.34s.82-2.5,2.18-2.5c1.51,0,1.92,1.33,1.92,2.18,0,.17-.02.31-.03.39h-3.26Zm2.47-.6c0-.54-.22-1.37-1.17-1.37-.85,0-1.23.79-1.29,1.37h2.46Z"/>
      <path class="cls-2" d="m134.63,98.81c.25.16.69.33,1.11.33.61,0,.9-.31.9-.69,0-.4-.24-.62-.86-.85-.83-.3-1.23-.76-1.23-1.31,0-.75.6-1.36,1.6-1.36.47,0,.88.13,1.14.29l-.21.61c-.18-.12-.52-.27-.95-.27-.5,0-.78.29-.78.63,0,.38.28.56.88.79.81.31,1.22.71,1.22,1.4,0,.81-.63,1.39-1.73,1.39-.51,0-.98-.12-1.3-.32l.21-.64Z"/>
      <path class="cls-2" d="m141.34,92.49v9.58h-.64v-9.58h.64Z"/>
      <path class="cls-2" d="m144.93,93.3c.36-.08.94-.13,1.52-.13.83,0,1.37.14,1.77.47.33.25.54.63.54,1.14,0,.62-.41,1.17-1.09,1.42v.02c.61.15,1.33.66,1.33,1.62,0,.56-.22.98-.55,1.29-.45.41-1.18.6-2.23.6-.58,0-1.02-.04-1.29-.08v-6.35Zm.83,2.65h.76c.88,0,1.4-.46,1.4-1.08,0-.76-.58-1.05-1.42-1.05-.38,0-.6.03-.74.06v2.08Zm0,3.09c.16.03.4.04.7.04.86,0,1.66-.32,1.66-1.25,0-.88-.76-1.25-1.67-1.25h-.69v2.46Z"/>
      <path class="cls-2" d="m154.33,97.32c0,1.71-1.19,2.46-2.31,2.46-1.26,0-2.22-.92-2.22-2.39,0-1.55,1.02-2.46,2.3-2.46s2.23.97,2.23,2.39Zm-3.68.05c0,1.02.58,1.78,1.41,1.78s1.41-.76,1.41-1.8c0-.79-.39-1.78-1.39-1.78s-1.43.92-1.43,1.8Z"/>
      <path class="cls-2" d="m159.39,95.04c-.02.33-.04.71-.04,1.27v2.69c0,1.06-.21,1.71-.66,2.12-.45.42-1.1.56-1.69.56s-1.17-.13-1.54-.38l.21-.64c.31.19.79.36,1.36.36.86,0,1.49-.45,1.49-1.62v-.52h-.02c-.26.43-.76.78-1.48.78-1.15,0-1.97-.98-1.97-2.26,0-1.57,1.03-2.46,2.09-2.46.81,0,1.25.42,1.45.8h.02l.04-.7h.74Zm-.87,1.83c0-.14,0-.27-.05-.38-.15-.49-.57-.89-1.18-.89-.8,0-1.38.68-1.38,1.75,0,.91.46,1.67,1.37,1.67.52,0,.99-.33,1.17-.86.05-.14.07-.31.07-.45v-.83Z"/>
      <path class="cls-2" d="m164.96,97.32c0,1.71-1.19,2.46-2.31,2.46-1.26,0-2.22-.92-2.22-2.39,0-1.55,1.02-2.46,2.3-2.46s2.23.97,2.23,2.39Zm-3.68.05c0,1.02.58,1.78,1.41,1.78s1.41-.76,1.41-1.8c0-.79-.39-1.78-1.39-1.78s-1.43.92-1.43,1.8Z"/>
      <path class="cls-2" d="m167.04,93.71v1.33h1.21v.64h-1.21v2.5c0,.58.16.9.63.9.22,0,.38-.03.49-.06l.04.63c-.16.07-.42.12-.75.12-.39,0-.71-.12-.91-.35-.24-.25-.33-.66-.33-1.21v-2.53h-.72v-.64h.72v-1.11l.82-.22Z"/>
      <path class="cls-2" d="m171.76,99.68l-.07-.58h-.03c-.26.36-.76.69-1.42.69-.94,0-1.42-.66-1.42-1.33,0-1.12,1-1.73,2.79-1.72v-.1c0-.38-.11-1.07-1.05-1.07-.43,0-.88.13-1.21.35l-.19-.56c.38-.25.94-.41,1.52-.41,1.42,0,1.76.97,1.76,1.9v1.74c0,.4.02.79.08,1.11h-.77Zm-.12-2.37c-.92-.02-1.96.14-1.96,1.04,0,.55.36.8.8.8.6,0,.99-.38,1.12-.78.03-.09.05-.18.05-.27v-.8Zm.42-4.27l-1.17,1.37h-.6l.84-1.37h.93Z"/>
      <path class="cls-2" d="m173.27,100.86c.21-.57.47-1.59.58-2.29l.94-.1c-.22.81-.64,1.88-.91,2.33l-.6.06Z"/>
      <path class="cls-2" d="m182.38,99.47c-.31.15-.92.31-1.71.31-1.82,0-3.19-1.15-3.19-3.27s1.37-3.39,3.37-3.39c.8,0,1.31.17,1.53.29l-.2.68c-.32-.15-.77-.27-1.3-.27-1.51,0-2.52.97-2.52,2.66,0,1.58.91,2.6,2.48,2.6.51,0,1.03-.11,1.36-.27l.17.66Z"/>
      <path class="cls-2" d="m187.49,97.32c0,1.71-1.19,2.46-2.31,2.46-1.26,0-2.22-.92-2.22-2.39,0-1.55,1.02-2.46,2.3-2.46s2.23.97,2.23,2.39Zm-3.68.05c0,1.02.58,1.78,1.41,1.78s1.41-.76,1.41-1.8c0-.79-.39-1.78-1.39-1.78s-1.43.92-1.43,1.8Z"/>
      <path class="cls-2" d="m188.56,92.87h.84v6.8h-.84v-6.8Z"/>
      <path class="cls-2" d="m195.01,97.32c0,1.71-1.19,2.46-2.31,2.46-1.26,0-2.22-.92-2.22-2.39,0-1.55,1.02-2.46,2.3-2.46s2.23.97,2.23,2.39Zm-3.68.05c0,1.02.58,1.78,1.41,1.78s1.41-.76,1.41-1.8c0-.79-.39-1.78-1.39-1.78s-1.43.92-1.43,1.8Z"/>
      <path class="cls-2" d="m196.08,96.29c0-.48,0-.87-.04-1.25h.74l.04.75h.03c.26-.44.69-.85,1.46-.85.63,0,1.11.38,1.31.93h.02c.14-.26.33-.46.52-.6.28-.21.58-.33,1.03-.33.61,0,1.52.4,1.52,2.01v2.73h-.82v-2.63c0-.89-.33-1.43-1.01-1.43-.48,0-.85.35-1,.77-.04.12-.07.27-.07.42v2.87h-.82v-2.78c0-.74-.33-1.27-.97-1.27-.53,0-.91.42-1.04.84-.05.12-.07.27-.07.41v2.8h-.82v-3.38Z"/>
      <path class="cls-2" d="m204.04,99.68c.02-.32.04-.79.04-1.2v-5.61h.83v2.91h.02c.3-.52.83-.85,1.58-.85,1.15,0,1.96.96,1.96,2.37,0,1.66-1.04,2.48-2.08,2.48-.67,0-1.21-.26-1.55-.87h-.03l-.04.77h-.73Zm.87-1.86c0,.11.02.21.04.31.16.58.65.99,1.27.99.88,0,1.41-.72,1.41-1.78,0-.93-.48-1.73-1.38-1.73-.58,0-1.11.39-1.28,1.04-.02.1-.05.21-.05.34v.83Z"/>
      <path class="cls-2" d="m210.47,93.74c0,.29-.2.52-.54.52-.3,0-.51-.23-.51-.52s.22-.53.53-.53.52.23.52.53Zm-.94,5.94v-4.64h.84v4.64h-.84Z"/>
      <path class="cls-2" d="m214.35,99.68l-.07-.58h-.03c-.26.36-.76.69-1.42.69-.94,0-1.42-.66-1.42-1.33,0-1.12,1-1.73,2.79-1.72v-.1c0-.38-.11-1.07-1.05-1.07-.43,0-.88.13-1.21.35l-.19-.56c.38-.25.94-.41,1.52-.41,1.42,0,1.76.97,1.76,1.9v1.74c0,.4.02.79.08,1.11h-.77Zm-.12-2.37c-.92-.02-1.96.14-1.96,1.04,0,.55.36.8.8.8.6,0,.99-.38,1.12-.78.03-.09.05-.18.05-.27v-.8Z"/>
    </g>
    <path class="cls-1" d="m141.97,34.23c-9.91,0-18.37,13.26-18.37,13.26,0,0,8.49,13.27,18.4,13.27s18.36-13.27,18.36-13.27c0,0-8.49-13.26-18.39-13.26Zm0,24.23c-6.05,0-10.97-4.92-10.97-10.96s4.92-10.97,10.97-10.97,10.96,4.92,10.96,10.97-4.92,10.96-10.96,10.96Z"/>
    <path class="cls-2" d="m150.53,47.5c0,4.73-3.83,8.56-8.56,8.56s-8.57-3.83-8.57-8.56,3.83-8.57,8.57-8.57c1.53,0,2.97.4,4.21,1.11-1.42.35-2.47,1.64-2.47,3.17,0,1.81,1.47,3.27,3.28,3.27,1.35,0,2.5-.81,3.01-1.97.34.93.53,1.94.53,2.99Z"/>
  </g>
</svg>