<?xml version="1.0" encoding="UTF-8"?>
<svg id="Layer_3" data-name="Layer 3" xmlns="http://www.w3.org/2000/svg" xmlns:xlink="http://www.w3.org/1999/xlink" viewBox="0 0 1000 798">
  <defs>
    <style>
      .cls-1 {
        fill: #fff;
      }

      .cls-1, .cls-2 {
        stroke-width: 0px;
      }

      .cls-2 {
        fill: url(#Degradado_sin_nombre_57);
      }
    </style>
    <linearGradient id="Degradado_sin_nombre_57" data-name="Degradado sin nombre 57" x1="748.86" y1="9.69" x2="129.22" y2="605.72" gradientUnits="userSpaceOnUse">
      <stop offset="0" stop-color="#fff"/>
      <stop offset=".06" stop-color="#2affcc"/>
      <stop offset="1" stop-color="#966aff"/>
    </linearGradient>
  </defs>
  <g id="EDITABLE_IMAGOTIPO" data-name="EDITABLE IMAGOTIPO">
    <path class="cls-1" d="M256.16,670.07c0,70.52-57.06,127.58-127.58,127.58S1,740.59,1,670.07s57.06-127.58,127.58-127.58,127.58,57.05,127.58,127.58ZM199.46,670.07c0-38.98-31.9-70.88-70.88-70.88s-70.88,31.9-70.88,70.88,31.54,70.88,70.88,70.88,70.88-31.54,70.88-70.88ZM491.84,797.65h-29.06c-19.49,0-38.98-9.92-46.78-24.45l-51.74-103.84-34.37,71.59h47.84c0,31.18-25.51,56.7-56.7,56.7h-84.35l127.58-255.16,127.58,255.16ZM698.47,719.68c0,43.24-35.08,77.97-77.97,77.97h-70.88c-31.19,0-56.7-25.52-56.7-56.7h127.58c11.7,0,21.27-9.57,21.27-21.27s-9.57-21.26-21.27-21.26h-49.61c-43.24,0-77.97-34.73-77.97-77.97s34.73-77.96,77.97-77.96h106.32c0,31.19-25.52,56.7-56.7,56.7h-49.61c-11.7,0-21.26,9.57-21.26,21.26s9.57,21.27,21.26,21.27h49.61c42.88,0,77.97,35.08,77.97,77.96ZM715.13,740.95v-198.46c31.19,0,56.7,25.51,56.7,56.7v198.46c-31.19,0-56.7-25.52-56.7-56.7ZM999,719.68c0,43.24-35.08,77.97-77.96,77.97h-70.88c-31.19,0-56.7-25.52-56.7-56.7h127.58c11.7,0,21.26-9.57,21.26-21.27s-9.57-21.26-21.26-21.26h-49.61c-43.24,0-77.97-34.73-77.97-77.97s34.73-77.96,77.97-77.96h106.31c0,31.19-25.51,56.7-56.7,56.7h-49.61c-11.7,0-21.27,9.57-21.27,21.26s9.57,21.27,21.27,21.27h49.61c42.88,0,77.96,35.08,77.96,77.96Z"/>
    <path class="cls-2" d="M640.55,258.81c0,83.02-67.57,150.55-150.59,150.55s-150.66-67.53-150.66-150.55c0-71.27,49.77-131.17,116.45-146.66,1.08,12.9,3.74,21.5,3.74,21.5,43.57,105.36,145.31,96.69,277.63,14.21-4.2-9.44-8.98-18.61-14.25-27.39-2.58-4.51-5.35-8.9-8.28-13.1-29.93-44.34-72.54-79.32-122.77-99.66-14.83-6.01-30.97-8.78-46.8-6.66-10.13,1.43-20.26,4.58-29.43,10.67-12.71,5.74-22.84,12.64-30.86,20.07-122.89,2.77-221.85,103.55-221.85,227.01s101.85,226.98,227.09,226.98,227.01-101.85,227.01-226.98v-38.21c-21.15,0-76.43,17.1-76.43,38.21ZM568.9,45.55c-.19-.46-.19-.96-.19-1.42,0-7.63,6.09-13.87,13.44-13.87s13.48,6.24,13.48,13.87-6.01,13.94-13.48,13.94c-3.51,0-6.78-1.42-9.17-3.93l-38.21,14.33c7.28,1.16,14.06,2.5,20.34,4.04l74.73-10.25c2.66-.39,5.05,1.54,5.35,4.12.39,2.58-1.46,5.05-4.01,5.35l-53.7,7.36c19.88,6.97,33.05,14.79,39.64,19.18,3.43-5.93,9.75-9.94,16.91-9.94,10.9,0,19.69,9.09,19.69,20.26s-8.78,20.26-19.69,20.26-19.69-9.17-19.69-20.26v-.58c-5.16-3.62-22.92-15.29-52.81-23.77l16.99,56.24c6.01,1.46,10.4,6.9,10.4,13.48,0,7.74-6.01,13.95-13.44,13.95s-13.48-6.2-13.48-13.95c0-5.24,2.77-9.75,6.97-12.13l-18.34-60.48c-5.82-1.31-12.13-2.58-18.84-3.62l16.14,42.53c.96,2.47-.27,5.24-2.74,6.2-.5.19-1.08.27-1.66.27-1.89,0-3.7-1.16-4.47-3.04l-14.45-37.83-3.62-9.55c-9.63-1.04-19.95-1.62-31.05-1.62-2.66,0-4.78-2.12-4.78-4.78s2.12-4.78,4.78-4.78c8.4,0,16.45.39,24.08.92l13.1-4.85,41.76-15.68ZM575.49,149.68c-2.2,0-3.93,1.93-3.93,4.31s1.73,4.39,3.93,4.39c2.08,0,3.89-1.89,3.89-4.39s-1.81-4.31-3.89-4.31ZM575.49,149.68c-2.2,0-3.93,1.93-3.93,4.31s1.73,4.39,3.93,4.39c2.08,0,3.89-1.89,3.89-4.39s-1.81-4.31-3.89-4.31ZM575.49,149.68c-2.2,0-3.93,1.93-3.93,4.31s1.73,4.39,3.93,4.39c2.08,0,3.89-1.89,3.89-4.39s-1.81-4.31-3.89-4.31ZM634.04,97.9c-5.55,0-10.13,4.78-10.13,10.71s4.58,10.71,10.13,10.71,10.13-4.89,10.13-10.71-4.51-10.71-10.13-10.71ZM634.04,97.9c-5.55,0-10.13,4.78-10.13,10.71s4.58,10.71,10.13,10.71,10.13-4.89,10.13-10.71-4.51-10.71-10.13-10.71ZM575.49,149.68c-2.2,0-3.93,1.93-3.93,4.31s1.73,4.39,3.93,4.39c2.08,0,3.89-1.89,3.89-4.39s-1.81-4.31-3.89-4.31ZM575.49,149.68c-2.2,0-3.93,1.93-3.93,4.31s1.73,4.39,3.93,4.39c2.08,0,3.89-1.89,3.89-4.39s-1.81-4.31-3.89-4.31ZM634.04,97.9c-5.55,0-10.13,4.78-10.13,10.71s4.58,10.71,10.13,10.71,10.13-4.89,10.13-10.71-4.51-10.71-10.13-10.71ZM634.04,97.9c-5.55,0-10.13,4.78-10.13,10.71s4.58,10.71,10.13,10.71,10.13-4.89,10.13-10.71-4.51-10.71-10.13-10.71ZM575.49,149.68c-2.2,0-3.93,1.93-3.93,4.31s1.73,4.39,3.93,4.39c2.08,0,3.89-1.89,3.89-4.39s-1.81-4.31-3.89-4.31ZM575.49,149.68c-2.2,0-3.93,1.93-3.93,4.31s1.73,4.39,3.93,4.39c2.08,0,3.89-1.89,3.89-4.39s-1.81-4.31-3.89-4.31ZM582.15,39.81c-2.08,0-3.89,1.93-3.89,4.31s1.81,4.39,3.89,4.39c2.2,0,3.93-2,3.93-4.39s-1.73-4.31-3.93-4.31ZM634.04,97.9c-5.55,0-10.13,4.78-10.13,10.71s4.58,10.71,10.13,10.71,10.13-4.89,10.13-10.71-4.51-10.71-10.13-10.71ZM634.04,97.9c-5.55,0-10.13,4.78-10.13,10.71s4.58,10.71,10.13,10.71,10.13-4.89,10.13-10.71-4.51-10.71-10.13-10.71ZM582.15,39.81c-2.08,0-3.89,1.93-3.89,4.31s1.81,4.39,3.89,4.39c2.2,0,3.93-2,3.93-4.39s-1.73-4.31-3.93-4.31ZM575.49,149.68c-2.2,0-3.93,1.93-3.93,4.31s1.73,4.39,3.93,4.39c2.08,0,3.89-1.89,3.89-4.39s-1.81-4.31-3.89-4.31ZM634.04,97.9c-5.55,0-10.13,4.78-10.13,10.71s4.58,10.71,10.13,10.71,10.13-4.89,10.13-10.71-4.51-10.71-10.13-10.71ZM582.15,39.81c-2.08,0-3.89,1.93-3.89,4.31s1.81,4.39,3.89,4.39c2.2,0,3.93-2,3.93-4.39s-1.73-4.31-3.93-4.31ZM575.49,149.68c-2.2,0-3.93,1.93-3.93,4.31s1.73,4.39,3.93,4.39c2.08,0,3.89-1.89,3.89-4.39s-1.81-4.31-3.89-4.31ZM575.49,149.68c-2.2,0-3.93,1.93-3.93,4.31s1.73,4.39,3.93,4.39c2.08,0,3.89-1.89,3.89-4.39s-1.81-4.31-3.89-4.31ZM582.15,39.81c-2.08,0-3.89,1.93-3.89,4.31s1.81,4.39,3.89,4.39c2.2,0,3.93-2,3.93-4.39s-1.73-4.31-3.93-4.31ZM634.04,97.9c-5.55,0-10.13,4.78-10.13,10.71s4.58,10.71,10.13,10.71,10.13-4.89,10.13-10.71-4.51-10.71-10.13-10.71ZM634.04,97.9c-5.55,0-10.13,4.78-10.13,10.71s4.58,10.71,10.13,10.71,10.13-4.89,10.13-10.71-4.51-10.71-10.13-10.71ZM582.15,39.81c-2.08,0-3.89,1.93-3.89,4.31s1.81,4.39,3.89,4.39c2.2,0,3.93-2,3.93-4.39s-1.73-4.31-3.93-4.31ZM575.49,149.68c-2.2,0-3.93,1.93-3.93,4.31s1.73,4.39,3.93,4.39c2.08,0,3.89-1.89,3.89-4.39s-1.81-4.31-3.89-4.31ZM575.49,149.68c-2.2,0-3.93,1.93-3.93,4.31s1.73,4.39,3.93,4.39c2.08,0,3.89-1.89,3.89-4.39s-1.81-4.31-3.89-4.31ZM634.04,97.9c-5.55,0-10.13,4.78-10.13,10.71s4.58,10.71,10.13,10.71,10.13-4.89,10.13-10.71-4.51-10.71-10.13-10.71ZM634.04,97.9c-5.55,0-10.13,4.78-10.13,10.71s4.58,10.71,10.13,10.71,10.13-4.89,10.13-10.71-4.51-10.71-10.13-10.71ZM575.49,149.68c-2.2,0-3.93,1.93-3.93,4.31s1.73,4.39,3.93,4.39c2.08,0,3.89-1.89,3.89-4.39s-1.81-4.31-3.89-4.31ZM575.49,149.68c-2.2,0-3.93,1.93-3.93,4.31s1.73,4.39,3.93,4.39c2.08,0,3.89-1.89,3.89-4.39s-1.81-4.31-3.89-4.31ZM634.04,97.9c-5.55,0-10.13,4.78-10.13,10.71s4.58,10.71,10.13,10.71,10.13-4.89,10.13-10.71-4.51-10.71-10.13-10.71ZM634.04,97.9c-5.55,0-10.13,4.78-10.13,10.71s4.58,10.71,10.13,10.71,10.13-4.89,10.13-10.71-4.51-10.71-10.13-10.71ZM575.49,149.68c-2.2,0-3.93,1.93-3.93,4.31s1.73,4.39,3.93,4.39c2.08,0,3.89-1.89,3.89-4.39s-1.81-4.31-3.89-4.31Z"/>
  </g>
</svg>